<svg id="visual" viewBox="0 0 1920 1080" width="1920" height="1080" xmlns="http://www.w3.org/2000/svg" xmlns:xlink="http://www.w3.org/1999/xlink" version="1.1"><rect x="0" y="0" width="1920" height="1080" fill="#0f0f0f"></rect><path d="M0 428L175 444L349 303L524 406L698 345L873 253L1047 451L1222 354L1396 238L1571 387L1745 333L1920 272L1920 1081L1745 1081L1571 1081L1396 1081L1222 1081L1047 1081L873 1081L698 1081L524 1081L349 1081L175 1081L0 1081Z" fill="#a8a8a8"></path><path d="M0 443L175 389L349 477L524 394L698 292L873 558L1047 407L1222 541L1396 488L1571 573L1745 330L1920 254L1920 1081L1745 1081L1571 1081L1396 1081L1222 1081L1047 1081L873 1081L698 1081L524 1081L349 1081L175 1081L0 1081Z" fill="#9d9d9d"></path><path d="M0 465L175 483L349 355L524 586L698 328L873 624L1047 373L1222 464L1396 548L1571 472L1745 625L1920 482L1920 1081L1745 1081L1571 1081L1396 1081L1222 1081L1047 1081L873 1081L698 1081L524 1081L349 1081L175 1081L0 1081Z" fill="#919191"></path><path d="M0 586L175 561L349 493L524 630L698 548L873 481L1047 640L1222 578L1396 417L1571 518L1745 664L1920 591L1920 1081L1745 1081L1571 1081L1396 1081L1222 1081L1047 1081L873 1081L698 1081L524 1081L349 1081L175 1081L0 1081Z" fill="#868686"></path><path d="M0 559L175 549L349 600L524 535L698 713L873 651L1047 672L1222 681L1396 481L1571 651L1745 542L1920 552L1920 1081L1745 1081L1571 1081L1396 1081L1222 1081L1047 1081L873 1081L698 1081L524 1081L349 1081L175 1081L0 1081Z" fill="#7b7b7b"></path><path d="M0 654L175 548L349 644L524 684L698 743L873 758L1047 655L1222 553L1396 671L1571 695L1745 617L1920 546L1920 1081L1745 1081L1571 1081L1396 1081L1222 1081L1047 1081L873 1081L698 1081L524 1081L349 1081L175 1081L0 1081Z" fill="#707070"></path><path d="M0 706L175 728L349 676L524 797L698 764L873 787L1047 753L1222 737L1396 740L1571 654L1745 762L1920 634L1920 1081L1745 1081L1571 1081L1396 1081L1222 1081L1047 1081L873 1081L698 1081L524 1081L349 1081L175 1081L0 1081Z" fill="#666666"></path><path d="M0 815L175 850L349 849L524 774L698 744L873 776L1047 740L1222 808L1396 738L1571 682L1745 746L1920 761L1920 1081L1745 1081L1571 1081L1396 1081L1222 1081L1047 1081L873 1081L698 1081L524 1081L349 1081L175 1081L0 1081Z" fill="#5b5b5b"></path><path d="M0 771L175 817L349 886L524 874L698 771L873 795L1047 773L1222 825L1396 792L1571 812L1745 871L1920 776L1920 1081L1745 1081L1571 1081L1396 1081L1222 1081L1047 1081L873 1081L698 1081L524 1081L349 1081L175 1081L0 1081Z" fill="#515151"></path><path d="M0 857L175 925L349 827L524 928L698 890L873 863L1047 862L1222 855L1396 842L1571 941L1745 904L1920 880L1920 1081L1745 1081L1571 1081L1396 1081L1222 1081L1047 1081L873 1081L698 1081L524 1081L349 1081L175 1081L0 1081Z" fill="#474747"></path><path d="M0 906L175 943L349 960L524 937L698 960L873 991L1047 897L1222 915L1396 976L1571 940L1745 922L1920 988L1920 1081L1745 1081L1571 1081L1396 1081L1222 1081L1047 1081L873 1081L698 1081L524 1081L349 1081L175 1081L0 1081Z" fill="#3d3d3d"></path><path d="M0 988L175 967L349 1032L524 1037L698 992L873 982L1047 978L1222 1037L1396 1009L1571 990L1745 993L1920 1016L1920 1081L1745 1081L1571 1081L1396 1081L1222 1081L1047 1081L873 1081L698 1081L524 1081L349 1081L175 1081L0 1081Z" fill="#333333"></path></svg>